<svg xmlns="http://www.w3.org/2000/svg" viewBox="0 0 1000 1100" width="100%" height="100%" fill="none">
  <defs>
    <linearGradient id="grad-mountain-light" x1="100" y1="500" x2="600" y2="100" gradientUnits="userSpaceOnUse">
      <stop offset="0%" stop-color="#0d9488"/>
      <stop offset="50%" stop-color="#10b981"/>
      <stop offset="100%" stop-color="#4f46e5"/>
    </linearGradient>

    <linearGradient id="grad-fill-light" x1="100" y1="500" x2="600" y2="100" gradientUnits="userSpaceOnUse">
      <stop offset="0%" stop-color="#0d9488" stop-opacity="0.18"/>
      <stop offset="50%" stop-color="#10b981" stop-opacity="0.12"/>
      <stop offset="100%" stop-color="#4f46e5" stop-opacity="0.06"/>
    </linearGradient>

    <linearGradient id="grad-sun-light" x1="560" y1="120" x2="700" y2="260" gradientUnits="userSpaceOnUse">
      <stop offset="0%" stop-color="#fbbf24"/>
      <stop offset="60%" stop-color="#f59e0b"/>
      <stop offset="100%" stop-color="#f43f5e"/>
    </linearGradient>

    <linearGradient id="grad-text-light" x1="0" y1="0" x2="1" y2="0">
      <stop offset="0%" stop-color="#0d9488"/>
      <stop offset="50%" stop-color="#10b981"/>
      <stop offset="100%" stop-color="#4f46e5"/>
    </linearGradient>
  </defs>

  <!-- Big Mountain Logo Emblem Center Top -->
  <g transform="translate(150, 40)">
    <!-- Glowing Sun -->
    <circle cx="500" cy="230" r="85" fill="url(#grad-sun-light)" />
    
    <!-- Mountain Fill -->
    <path d="M120 540 L260 260 L380 440 L500 200 L620 540 Z" fill="url(#grad-fill-light)" />
    
    <!-- Mountain Strokes -->
    <path d="M120 540 L260 260 L380 440 L500 200 L620 540" 
          stroke="url(#grad-mountain-light)" stroke-width="46" stroke-linecap="round" stroke-linejoin="round" />
    
    <!-- Dynamic Running Trail -->
    <path d="M80 460 C 220 460, 280 360, 390 360 C 500 360, 530 480, 650 480" 
          stroke="url(#grad-mountain-light)" stroke-width="34" stroke-linecap="round" />
  </g>

  <!-- Typography -->
  <!-- "MOUNTAIN" -->
  <text x="500" y="730" text-anchor="middle" fill="#0f172a" font-family="'Outfit', 'Montserrat', sans-serif" font-size="108" font-weight="900" letter-spacing="16">MOUNTAIN</text>
  
  <!-- "RUN" with Gradient -->
  <text x="500" y="845" text-anchor="middle" fill="url(#grad-text-light)" font-family="'Outfit', 'Montserrat', sans-serif" font-size="108" font-weight="900" letter-spacing="24">RUN</text>

  <!-- Divider with decorative wings -->
  <g transform="translate(200, 890)">
    <line x1="0" y1="0" x2="220" y2="0" stroke="#cbd5e1" stroke-width="3" stroke-linecap="round" />
    <polygon points="300,-8 310,0 300,8 290,0" fill="#0d9488" />
    <line x1="380" y1="0" x2="600" y2="0" stroke="#cbd5e1" stroke-width="3" stroke-linecap="round" />
  </g>

  <!-- "RUN WITH PRIDE" Tagline -->
  <rect x="250" y="940" width="500" height="64" rx="32" fill="#0f172a" />
  <text x="500" y="982" text-anchor="middle" fill="#38bdf8" font-family="'Outfit', 'Montserrat', sans-serif" font-size="30" font-weight="800" letter-spacing="12">RUN WITH PRIDE</text>
</svg>