<svg xmlns="http://www.w3.org/2000/svg" viewBox="0 0 220 56" role="img" aria-label="Mountain Run">
  <defs>
    <linearGradient id="sunrise" x1="10" y1="46" x2="52" y2="10" gradientUnits="userSpaceOnUse">
      <stop stop-color="#FF6B35"/>
      <stop offset=".55" stop-color="#F7B733"/>
      <stop offset="1" stop-color="#0F766E"/>
    </linearGradient>
  </defs>
  <rect width="56" height="56" rx="14" fill="#101513"/>
  <path d="M10 41 22.5 20.5 31 33l6.5-10.5L47 41H10Z" fill="#fff"/>
  <path d="M10 41 22.5 20.5 31 33l-4.5 8H10Z" fill="url(#sunrise)"/>
  <circle cx="40.5" cy="15.5" r="5.5" fill="#F7B733"/>
  <path d="M69 20h6.4l7 13.8L89.3 20h6.4v24h-5.4V29.5l-5.8 11.2h-4.4l-5.8-11.1V44H69V20Zm32.7 12c0-7.2 5.2-12.5 12.4-12.5 7.3 0 12.5 5.3 12.5 12.5s-5.2 12.5-12.5 12.5c-7.2 0-12.4-5.3-12.4-12.5Zm19.1 0c0-4.2-2.8-7.1-6.7-7.1s-6.6 2.9-6.6 7.1 2.7 7.1 6.6 7.1 6.7-2.9 6.7-7.1Zm11.4-12h10.3c5.8 0 9.4 3.2 9.4 8.2 0 3.2-1.5 5.7-4.1 7l5 8.8h-6.2l-4.3-7.8h-4.6V44h-5.5V20Zm9.9 11.3c2.7 0 4.2-1.1 4.2-3.1 0-2.1-1.5-3.2-4.2-3.2h-4.4v6.3h4.4Zm16.7-11.3h5.5v18.9h11.5V44h-17V20Zm21.2 0h5.5v24H180V20Zm12.3 0h5.1l10.4 14.7V20h5.4v24h-5.1l-10.4-14.6V44h-5.4V20Z" fill="#101513"/>
</svg>
